<svg xmlns="http://www.w3.org/2000/svg" viewBox="0 0 533.5 544.3">
  <path fill="#4285F4" d="M533.5 278.4c0-18.5-1.5-37-4.7-55H272v104h147.3c-6.3 34-25.7 63-54.6 82.1v68.2h88.4c51.8-47.7 80.4-118 80.4-199.3z"/>
  <path fill="#34A853" d="M272 544.3c73.7 0 135.6-24.3 180.8-66.6l-88.4-68.2c-24.6 16.6-56.1 26-92.4 26-70.9 0-131-47.9-152.4-112.2H27.7v70.8C72.3 486.4 166.6 544.3 272 544.3z"/>
  <path fill="#FBBC05" d="M119.6 323.3c-10.2-30.4-10.2-63.4 0-93.8v-70.8H27.7c-37.8 75.3-37.8 160.1 0 235.4l91.9-70.8z"/>
  <path fill="#EA4335" d="M272 214.3c38.9-.6 76.2 14 104.4 40.9l77.7-77.7C407.8 108.7 345.9 80.1 272 80.1 166.6 80.1 72.3 138 27.7 214.3l91.9 70.8C141 262.2 201.1 214.3 272 214.3z"/>
</svg>